<svg width="11" height="11" viewBox="0 0 11 11" fill="none" xmlns="http://www.w3.org/2000/svg">
<circle cx="5.5" cy="5.5" r="5.5" fill="#FF6262"/>
<path d="M5.69434 6.99316H4.87891L4.81543 1.89062H5.7627L5.69434 6.99316ZM4.78125 8.5459C4.78125 8.39941 4.8252 8.27734 4.91309 8.17969C5.00423 8.07878 5.1377 8.02832 5.31348 8.02832C5.48926 8.02832 5.62272 8.07878 5.71387 8.17969C5.80501 8.27734 5.85059 8.39941 5.85059 8.5459C5.85059 8.69238 5.80501 8.81445 5.71387 8.91211C5.62272 9.00651 5.48926 9.05371 5.31348 9.05371C5.1377 9.05371 5.00423 9.00651 4.91309 8.91211C4.8252 8.81445 4.78125 8.69238 4.78125 8.5459Z" fill="white"/>
</svg>
