<svg width="21" height="13" viewBox="0 0 21 13" fill="none" xmlns="http://www.w3.org/2000/svg">
<path d="M20.2643 6.19148C20.2835 6.229 20.2935 6.27055 20.2935 6.3127C20.2935 6.35485 20.2835 6.3964 20.2643 6.43392C19.3118 8.29773 17.8629 9.86221 16.0776 10.9548C14.2923 12.0473 12.2399 12.6255 10.1468 12.6255C8.05365 12.6255 6.00123 12.0473 4.2159 10.9548C2.43058 9.86221 0.98174 8.29773 0.029224 6.43392C0.0100165 6.3964 0 6.35485 0 6.3127C0 6.27055 0.0100165 6.229 0.029224 6.19148C0.98174 4.32767 2.43058 2.76319 4.2159 1.67064C6.00123 0.578083 8.05365 -8.58307e-05 10.1468 -8.58307e-05C12.2399 -8.58307e-05 14.2923 0.578083 16.0776 1.67064C17.8629 2.76319 19.3118 4.32767 20.2643 6.19148ZM10.1468 0.533289C8.17485 0.532676 6.24023 1.07068 4.55174 2.08921C2.86325 3.10775 1.48503 4.56813 0.565863 6.3127C1.48524 8.0572 2.86347 9.51758 4.55188 10.5363C6.2403 11.555 8.17481 12.0934 10.1468 12.0934C12.1187 12.0934 14.0532 11.555 15.7416 10.5363C17.43 9.51758 18.8083 8.0572 19.7276 6.3127C18.8085 4.56813 17.4303 3.10775 15.7418 2.08921C14.0533 1.07068 12.1187 0.532676 10.1468 0.533289Z" fill="#000"/>
<path d="M10.147 9.90643C9.4364 9.90628 8.74183 9.69545 8.15107 9.30058C7.56032 8.90571 7.0999 8.34455 6.82805 7.68804C6.55619 7.03153 6.4851 6.30915 6.62377 5.61224C6.76243 4.91533 7.10462 4.27518 7.60707 3.77273C8.10952 3.27028 8.74966 2.92809 9.44658 2.78943C10.1435 2.65077 10.8659 2.72186 11.5224 2.99371C12.1789 3.26557 12.7401 3.72598 13.1349 4.31674C13.5298 4.90749 13.7406 5.60207 13.7408 6.31264C13.7436 6.78537 13.6526 7.25397 13.473 7.69126C13.2934 8.12856 13.0288 8.52586 12.6945 8.86014C12.3602 9.19442 11.9629 9.45903 11.5256 9.63863C11.0883 9.81824 10.6197 9.90926 10.147 9.90643ZM11.5199 3.57721C11.0945 3.36128 10.624 3.24944 10.147 3.25092C9.33523 3.25182 8.557 3.57468 7.98301 4.14867C7.40902 4.72266 7.08616 5.5009 7.08525 6.31264C7.08605 7.12441 7.40888 7.90271 7.98289 8.47672C8.5569 9.05073 9.3352 9.37356 10.147 9.37436C10.8363 9.37452 11.5054 9.14203 12.0461 8.71452C12.5868 8.28701 12.9674 7.68952 13.1263 7.01878C13.2851 6.34804 13.2129 5.64332 12.9214 5.01872C12.6298 4.39412 12.136 3.8862 11.5199 3.57721Z" fill="#000"/>
</svg>
