<svg width="21" height="20" viewBox="0 0 21 20" fill="none" xmlns="http://www.w3.org/2000/svg">
<path d="M20.2643 10.191C20.2835 10.2285 20.2935 10.2701 20.2935 10.3122C20.2935 10.3544 20.2835 10.3959 20.2643 10.4334C19.3118 12.2972 17.8629 13.8617 16.0776 14.9543C14.2923 16.0468 12.2399 16.625 10.1468 16.625C8.05365 16.625 6.00123 16.0468 4.2159 14.9543C2.43058 13.8617 0.98174 12.2972 0.029224 10.4334C0.0100165 10.3959 0 10.3544 0 10.3122C0 10.2701 0.0100165 10.2285 0.029224 10.191C0.98174 8.32718 2.43058 6.7627 4.2159 5.67015C6.00123 4.57759 8.05365 3.99943 10.1468 3.99943C12.2399 3.99943 14.2923 4.57759 16.0776 5.67015C17.8629 6.7627 19.3118 8.32718 20.2643 10.191ZM10.1468 4.5328C8.17485 4.53219 6.24023 5.07019 4.55174 6.08872C2.86325 7.10726 1.48503 8.56764 0.565863 10.3122C1.48524 12.0567 2.86347 13.5171 4.55188 14.5358C6.2403 15.5545 8.17481 16.0929 10.1468 16.0929C12.1187 16.0929 14.0532 15.5545 15.7416 14.5358C17.43 13.5171 18.8083 12.0567 19.7276 10.3122C18.8085 8.56764 17.4303 7.10726 15.7418 6.08872C14.0533 5.07019 12.1187 4.53219 10.1468 4.5328Z" fill="#000"/>
<path d="M4.5 0.5L15 19.5" stroke="#000"/>
<path d="M10.147 13.9062C9.4364 13.906 8.74183 13.6952 8.15107 13.3003C7.56032 12.9055 7.0999 12.3443 6.82805 11.6878C6.55619 11.0313 6.4851 10.3089 6.62377 9.612C6.76243 8.91508 7.10462 8.27494 7.60707 7.77249C8.10952 7.27004 8.74966 6.92785 9.44658 6.78918C10.1435 6.65052 10.8659 6.72161 11.5224 6.99347C12.1789 7.26532 12.7401 7.72574 13.1349 8.31649C13.5298 8.90725 13.7406 9.60182 13.7408 10.3124C13.7436 10.7851 13.6526 11.2537 13.473 11.691C13.2934 12.1283 13.0288 12.5256 12.6945 12.8599C12.3602 13.1942 11.9629 13.4588 11.5256 13.6384C11.0883 13.818 10.6197 13.909 10.147 13.9062V13.9062ZM11.5199 7.57697C11.0945 7.36103 10.624 7.2492 10.147 7.25067C9.33523 7.25158 8.557 7.57444 7.98301 8.14843C7.40902 8.72242 7.08616 9.50065 7.08525 10.3124C7.08605 11.1242 7.40888 11.9025 7.98289 12.4765C8.5569 13.0505 9.3352 13.3733 10.147 13.3741C10.8363 13.3743 11.5054 13.1418 12.0461 12.7143C12.5868 12.2868 12.9674 11.6893 13.1263 11.0185C13.2851 10.3478 13.2129 9.64308 12.9214 9.01848C12.6298 8.39388 12.136 7.88596 11.5199 7.57697V7.57697Z" fill="#000"/>
</svg>
